<svg id="레이어_1" data-name="레이어 1" xmlns="http://www.w3.org/2000/svg" viewBox="0 0 232.19 45.32"><defs><style>.cls-1,.cls-2{fill:#545454;}.cls-2{font-size:15.16px;font-family:GmarketSansMedium-KSCpc-EUC-H, Gmarket Sans;letter-spacing:-0.03em;}</style></defs><path class="cls-1" d="M1382.31,20.46a2.21,2.21,0,0,0-1.77-.88h-2a4.51,4.51,0,0,0-9,0h-2a2.22,2.22,0,0,0-2.14,2.82l2.84,10.09a2.22,2.22,0,0,0,2.13,1.61h7.33a2.23,2.23,0,0,0,2.13-1.61l2.83-10.09A2.2,2.2,0,0,0,1382.31,20.46Zm-4.6,12.14h-7.33a.72.72,0,0,1-.69-.52L1366.86,22a.69.69,0,0,1,.12-.62.68.68,0,0,1,.57-.29h13a.72.72,0,0,1,.69.91l-2.84,10.09A.71.71,0,0,1,1377.71,32.6ZM1374,16.71a3,3,0,0,1,3,2.87h-6A3,3,0,0,1,1374,16.71Z" transform="translate(-1331.74 -2)"/><text class="cls-2" transform="translate(62.07 27.63)">SHOPPING MALL</text><path class="cls-1" d="M1563.94,47.32h-232.2V2h232.2Zm-231.2-1h230.2V3h-230.2Z" transform="translate(-1331.74 -2)"/></svg>