<svg id="레이어_1" data-name="레이어 1" xmlns="http://www.w3.org/2000/svg" viewBox="0 0 999.94 45.32"><defs><style>.cls-1{fill:#545454;}.cls-2,.cls-3{fill:#252525;}.cls-3{font-size:15.16px;font-family:GmarketSansMedium-KSCpc-EUC-H, Gmarket Sans;letter-spacing:-0.03em;}</style></defs><path class="cls-1" d="M2,42.94,30.81,4.22H3.08V2.05H33.9V3.9L5.09,42.62H34.87v2.16H2Z" transform="translate(-2 -0.76)"/><path class="cls-1" d="M71.9,2V44.78H69.57V2Z" transform="translate(-2 -0.76)"/><path class="cls-1" d="M109.51,2h2.92l29.74,39.75V2h2.32V44.78h-2.92L111.84,5V44.78h-2.33Z" transform="translate(-2 -0.76)"/><path class="cls-1" d="M182.12,2h29.19V4.17H184.45v17.7h25V24h-25V42.62H211.8v2.16H182.12Z" transform="translate(-2 -0.76)"/><path class="cls-2" d="M577.16,19.22a2.18,2.18,0,0,0-1.76-.88h-2a4.51,4.51,0,0,0-9,0h-2a2.22,2.22,0,0,0-2.13,2.82l2.84,10.08a2.21,2.21,0,0,0,2.13,1.62h7.32a2.23,2.23,0,0,0,2.14-1.62l2.83-10.08A2.18,2.18,0,0,0,577.16,19.22Zm-4.6,12.14h-7.32a.72.72,0,0,1-.69-.52l-2.83-10.09a.71.71,0,0,1,.11-.63.72.72,0,0,1,.57-.28h13a.71.71,0,0,1,.57.28.72.72,0,0,1,.12.63l-2.84,10.09A.71.71,0,0,1,572.56,31.36ZM568.9,15.47a3,3,0,0,1,3,2.87h-6A3,3,0,0,1,568.9,15.47Z" transform="translate(-2 -0.76)"/><text class="cls-3" transform="translate(586.67 27.63)">SHOPPING MALL</text><path class="cls-2" d="M758.8,46.07H526.6V.76H758.8Zm-231.2-1H757.8V1.76H527.6Z" transform="translate(-2 -0.76)"/><path class="cls-2" d="M903.61,32a14.16,14.16,0,1,1,14.15-14.15A14.17,14.17,0,0,1,903.61,32Zm0-27.31a13.16,13.16,0,1,0,13.15,13.16A13.17,13.17,0,0,0,903.61,4.72Z" transform="translate(-2 -0.76)"/><rect class="cls-2" x="919.1" y="25.38" width="1" height="20.64" transform="translate(242.1 659.95) rotate(-45)"/><polygon class="cls-1" points="999.94 42.74 989.06 42.74 989.06 41.74 998.94 41.74 998.94 4.03 989.32 4.03 989.32 3.03 999.94 3.03 999.94 42.74"/><rect class="cls-1" x="963.47" y="22.65" width="28.28" height="1"/><polygon class="cls-1" points="981.81 33.81 981.1 33.1 991.04 23.15 981.1 13.21 981.81 12.5 992.46 23.15 981.81 33.81"/></svg>